<?xml version="1.0" encoding="utf-8" standalone="no"?>
<!DOCTYPE svg PUBLIC "-//W3C//DTD SVG 1.1//EN"
  "http://www.w3.org/Graphics/SVG/1.1/DTD/svg11.dtd">
<svg xmlns:xlink="http://www.w3.org/1999/xlink" width="720.755312pt" height="507.189844pt" viewBox="0 0 720.755312 507.189844" xmlns="http://www.w3.org/2000/svg" version="1.1">
 <metadata>
  <rdf:RDF xmlns:dc="http://purl.org/dc/elements/1.1/" xmlns:cc="http://creativecommons.org/ns#" xmlns:rdf="http://www.w3.org/1999/02/22-rdf-syntax-ns#">
   <cc:Work>
    <dc:type rdf:resource="http://purl.org/dc/dcmitype/StillImage"/>
    <dc:date>2026-03-22T20:30:49.775910</dc:date>
    <dc:format>image/svg+xml</dc:format>
    <dc:creator>
     <cc:Agent>
      <dc:title>Matplotlib v3.10.8, https://matplotlib.org/</dc:title>
     </cc:Agent>
    </dc:creator>
   </cc:Work>
  </rdf:RDF>
 </metadata>
 <defs>
  <style type="text/css">*{stroke-linejoin: round; stroke-linecap: butt}</style>
 </defs>
 <g id="figure_1">
  <g id="patch_1">
   <path d="M 0 507.189844 
L 720.755312 507.189844 
L 720.755312 0 
L 0 0 
z
" style="fill: #ffffff"/>
  </g>
  <g id="axes_1">
   <g id="patch_2">
    <path d="M 43.955313 210.66754 
L 341.555313 210.66754 
L 341.555313 21.935625 
L 43.955313 21.935625 
z
" style="fill: #ffffff"/>
   </g>
   <g id="matplotlib.axis_1">
    <g id="xtick_1">
     <g id="line2d_1">
      <path d="M 57.482585 210.66754 
L 57.482585 21.935625 
" clip-path="url(#p2f7ff9d2b6)" style="fill: none; stroke: #cccccc; stroke-linecap: round"/>
     </g>
     <g id="text_1">
      <!-- 1.4 -->
      <g style="fill: #262626" transform="translate(49.837585 228.041134) scale(0.11 -0.11)">
       <defs>
        <path id="ArialMT-31" d="M 2384 0 
L 1822 0 
L 1822 3584 
Q 1619 3391 1289 3197 
Q 959 3003 697 2906 
L 697 3450 
Q 1169 3672 1522 3987 
Q 1875 4303 2022 4600 
L 2384 4600 
L 2384 0 
z
" transform="scale(0.015625)"/>
        <path id="ArialMT-2e" d="M 581 0 
L 581 641 
L 1222 641 
L 1222 0 
L 581 0 
z
" transform="scale(0.015625)"/>
        <path id="ArialMT-34" d="M 2069 0 
L 2069 1097 
L 81 1097 
L 81 1613 
L 2172 4581 
L 2631 4581 
L 2631 1613 
L 3250 1613 
L 3250 1097 
L 2631 1097 
L 2631 0 
L 2069 0 
z
M 2069 1613 
L 2069 3678 
L 634 1613 
L 2069 1613 
z
" transform="scale(0.015625)"/>
       </defs>
       <use xlink:href="#ArialMT-31"/>
       <use xlink:href="#ArialMT-2e" transform="translate(55.615234 0)"/>
       <use xlink:href="#ArialMT-34" transform="translate(83.398438 0)"/>
      </g>
     </g>
    </g>
    <g id="xtick_2">
     <g id="line2d_2">
      <path d="M 99.104963 210.66754 
L 99.104963 21.935625 
" clip-path="url(#p2f7ff9d2b6)" style="fill: none; stroke: #cccccc; stroke-linecap: round"/>
     </g>
     <g id="text_2">
      <!-- 1.6 -->
      <g style="fill: #262626" transform="translate(91.459963 228.041134) scale(0.11 -0.11)">
       <defs>
        <path id="ArialMT-36" d="M 3184 3459 
L 2625 3416 
Q 2550 3747 2413 3897 
Q 2184 4138 1850 4138 
Q 1581 4138 1378 3988 
Q 1113 3794 959 3422 
Q 806 3050 800 2363 
Q 1003 2672 1297 2822 
Q 1591 2972 1913 2972 
Q 2475 2972 2870 2558 
Q 3266 2144 3266 1488 
Q 3266 1056 3080 686 
Q 2894 316 2569 119 
Q 2244 -78 1831 -78 
Q 1128 -78 684 439 
Q 241 956 241 2144 
Q 241 3472 731 4075 
Q 1159 4600 1884 4600 
Q 2425 4600 2770 4297 
Q 3116 3994 3184 3459 
z
M 888 1484 
Q 888 1194 1011 928 
Q 1134 663 1356 523 
Q 1578 384 1822 384 
Q 2178 384 2434 671 
Q 2691 959 2691 1453 
Q 2691 1928 2437 2201 
Q 2184 2475 1800 2475 
Q 1419 2475 1153 2201 
Q 888 1928 888 1484 
z
" transform="scale(0.015625)"/>
       </defs>
       <use xlink:href="#ArialMT-31"/>
       <use xlink:href="#ArialMT-2e" transform="translate(55.615234 0)"/>
       <use xlink:href="#ArialMT-36" transform="translate(83.398438 0)"/>
      </g>
     </g>
    </g>
    <g id="xtick_3">
     <g id="line2d_3">
      <path d="M 140.72734 210.66754 
L 140.72734 21.935625 
" clip-path="url(#p2f7ff9d2b6)" style="fill: none; stroke: #cccccc; stroke-linecap: round"/>
     </g>
     <g id="text_3">
      <!-- 1.8 -->
      <g style="fill: #262626" transform="translate(133.08234 228.041134) scale(0.11 -0.11)">
       <defs>
        <path id="ArialMT-38" d="M 1131 2484 
Q 781 2613 612 2850 
Q 444 3088 444 3419 
Q 444 3919 803 4259 
Q 1163 4600 1759 4600 
Q 2359 4600 2725 4251 
Q 3091 3903 3091 3403 
Q 3091 3084 2923 2848 
Q 2756 2613 2416 2484 
Q 2838 2347 3058 2040 
Q 3278 1734 3278 1309 
Q 3278 722 2862 322 
Q 2447 -78 1769 -78 
Q 1091 -78 675 323 
Q 259 725 259 1325 
Q 259 1772 486 2073 
Q 713 2375 1131 2484 
z
M 1019 3438 
Q 1019 3113 1228 2906 
Q 1438 2700 1772 2700 
Q 2097 2700 2305 2904 
Q 2513 3109 2513 3406 
Q 2513 3716 2298 3927 
Q 2084 4138 1766 4138 
Q 1444 4138 1231 3931 
Q 1019 3725 1019 3438 
z
M 838 1322 
Q 838 1081 952 856 
Q 1066 631 1291 507 
Q 1516 384 1775 384 
Q 2178 384 2440 643 
Q 2703 903 2703 1303 
Q 2703 1709 2433 1975 
Q 2163 2241 1756 2241 
Q 1359 2241 1098 1978 
Q 838 1716 838 1322 
z
" transform="scale(0.015625)"/>
       </defs>
       <use xlink:href="#ArialMT-31"/>
       <use xlink:href="#ArialMT-2e" transform="translate(55.615234 0)"/>
       <use xlink:href="#ArialMT-38" transform="translate(83.398438 0)"/>
      </g>
     </g>
    </g>
    <g id="xtick_4">
     <g id="line2d_4">
      <path d="M 182.349718 210.66754 
L 182.349718 21.935625 
" clip-path="url(#p2f7ff9d2b6)" style="fill: none; stroke: #cccccc; stroke-linecap: round"/>
     </g>
     <g id="text_4">
      <!-- 2.0 -->
      <g style="fill: #262626" transform="translate(174.704718 228.041134) scale(0.11 -0.11)">
       <defs>
        <path id="ArialMT-32" d="M 3222 541 
L 3222 0 
L 194 0 
Q 188 203 259 391 
Q 375 700 629 1000 
Q 884 1300 1366 1694 
Q 2113 2306 2375 2664 
Q 2638 3022 2638 3341 
Q 2638 3675 2398 3904 
Q 2159 4134 1775 4134 
Q 1369 4134 1125 3890 
Q 881 3647 878 3216 
L 300 3275 
Q 359 3922 746 4261 
Q 1134 4600 1788 4600 
Q 2447 4600 2831 4234 
Q 3216 3869 3216 3328 
Q 3216 3053 3103 2787 
Q 2991 2522 2730 2228 
Q 2469 1934 1863 1422 
Q 1356 997 1212 845 
Q 1069 694 975 541 
L 3222 541 
z
" transform="scale(0.015625)"/>
        <path id="ArialMT-30" d="M 266 2259 
Q 266 3072 433 3567 
Q 600 4063 929 4331 
Q 1259 4600 1759 4600 
Q 2128 4600 2406 4451 
Q 2684 4303 2865 4023 
Q 3047 3744 3150 3342 
Q 3253 2941 3253 2259 
Q 3253 1453 3087 958 
Q 2922 463 2592 192 
Q 2263 -78 1759 -78 
Q 1097 -78 719 397 
Q 266 969 266 2259 
z
M 844 2259 
Q 844 1131 1108 757 
Q 1372 384 1759 384 
Q 2147 384 2411 759 
Q 2675 1134 2675 2259 
Q 2675 3391 2411 3762 
Q 2147 4134 1753 4134 
Q 1366 4134 1134 3806 
Q 844 3388 844 2259 
z
" transform="scale(0.015625)"/>
       </defs>
       <use xlink:href="#ArialMT-32"/>
       <use xlink:href="#ArialMT-2e" transform="translate(55.615234 0)"/>
       <use xlink:href="#ArialMT-30" transform="translate(83.398438 0)"/>
      </g>
     </g>
    </g>
    <g id="xtick_5">
     <g id="line2d_5">
      <path d="M 223.972096 210.66754 
L 223.972096 21.935625 
" clip-path="url(#p2f7ff9d2b6)" style="fill: none; stroke: #cccccc; stroke-linecap: round"/>
     </g>
     <g id="text_5">
      <!-- 2.2 -->
      <g style="fill: #262626" transform="translate(216.327096 228.041134) scale(0.11 -0.11)">
       <use xlink:href="#ArialMT-32"/>
       <use xlink:href="#ArialMT-2e" transform="translate(55.615234 0)"/>
       <use xlink:href="#ArialMT-32" transform="translate(83.398438 0)"/>
      </g>
     </g>
    </g>
    <g id="xtick_6">
     <g id="line2d_6">
      <path d="M 265.594473 210.66754 
L 265.594473 21.935625 
" clip-path="url(#p2f7ff9d2b6)" style="fill: none; stroke: #cccccc; stroke-linecap: round"/>
     </g>
     <g id="text_6">
      <!-- 2.4 -->
      <g style="fill: #262626" transform="translate(257.949473 228.041134) scale(0.11 -0.11)">
       <use xlink:href="#ArialMT-32"/>
       <use xlink:href="#ArialMT-2e" transform="translate(55.615234 0)"/>
       <use xlink:href="#ArialMT-34" transform="translate(83.398438 0)"/>
      </g>
     </g>
    </g>
    <g id="xtick_7">
     <g id="line2d_7">
      <path d="M 307.216851 210.66754 
L 307.216851 21.935625 
" clip-path="url(#p2f7ff9d2b6)" style="fill: none; stroke: #cccccc; stroke-linecap: round"/>
     </g>
     <g id="text_7">
      <!-- 2.6 -->
      <g style="fill: #262626" transform="translate(299.571851 228.041134) scale(0.11 -0.11)">
       <use xlink:href="#ArialMT-32"/>
       <use xlink:href="#ArialMT-2e" transform="translate(55.615234 0)"/>
       <use xlink:href="#ArialMT-36" transform="translate(83.398438 0)"/>
      </g>
     </g>
    </g>
    <g id="text_8">
     <!-- Salário médio mensal -->
     <g style="fill: #262626" transform="translate(135.064375 242.816759) scale(0.12 -0.12)">
      <defs>
       <path id="ArialMT-53" d="M 288 1472 
L 859 1522 
Q 900 1178 1048 958 
Q 1197 738 1509 602 
Q 1822 466 2213 466 
Q 2559 466 2825 569 
Q 3091 672 3220 851 
Q 3350 1031 3350 1244 
Q 3350 1459 3225 1620 
Q 3100 1781 2813 1891 
Q 2628 1963 1997 2114 
Q 1366 2266 1113 2400 
Q 784 2572 623 2826 
Q 463 3081 463 3397 
Q 463 3744 659 4045 
Q 856 4347 1234 4503 
Q 1613 4659 2075 4659 
Q 2584 4659 2973 4495 
Q 3363 4331 3572 4012 
Q 3781 3694 3797 3291 
L 3216 3247 
Q 3169 3681 2898 3903 
Q 2628 4125 2100 4125 
Q 1550 4125 1298 3923 
Q 1047 3722 1047 3438 
Q 1047 3191 1225 3031 
Q 1400 2872 2139 2705 
Q 2878 2538 3153 2413 
Q 3553 2228 3743 1945 
Q 3934 1663 3934 1294 
Q 3934 928 3725 604 
Q 3516 281 3123 101 
Q 2731 -78 2241 -78 
Q 1619 -78 1198 103 
Q 778 284 539 648 
Q 300 1013 288 1472 
z
" transform="scale(0.015625)"/>
       <path id="ArialMT-61" d="M 2588 409 
Q 2275 144 1986 34 
Q 1697 -75 1366 -75 
Q 819 -75 525 192 
Q 231 459 231 875 
Q 231 1119 342 1320 
Q 453 1522 633 1644 
Q 813 1766 1038 1828 
Q 1203 1872 1538 1913 
Q 2219 1994 2541 2106 
Q 2544 2222 2544 2253 
Q 2544 2597 2384 2738 
Q 2169 2928 1744 2928 
Q 1347 2928 1158 2789 
Q 969 2650 878 2297 
L 328 2372 
Q 403 2725 575 2942 
Q 747 3159 1072 3276 
Q 1397 3394 1825 3394 
Q 2250 3394 2515 3294 
Q 2781 3194 2906 3042 
Q 3031 2891 3081 2659 
Q 3109 2516 3109 2141 
L 3109 1391 
Q 3109 606 3145 398 
Q 3181 191 3288 0 
L 2700 0 
Q 2613 175 2588 409 
z
M 2541 1666 
Q 2234 1541 1622 1453 
Q 1275 1403 1131 1340 
Q 988 1278 909 1158 
Q 831 1038 831 891 
Q 831 666 1001 516 
Q 1172 366 1500 366 
Q 1825 366 2078 508 
Q 2331 650 2450 897 
Q 2541 1088 2541 1459 
L 2541 1666 
z
" transform="scale(0.015625)"/>
       <path id="ArialMT-6c" d="M 409 0 
L 409 4581 
L 972 4581 
L 972 0 
L 409 0 
z
" transform="scale(0.015625)"/>
       <path id="ArialMT-e1" d="M 2588 409 
Q 2275 144 1986 34 
Q 1697 -75 1366 -75 
Q 819 -75 525 192 
Q 231 459 231 875 
Q 231 1119 342 1320 
Q 453 1522 633 1644 
Q 813 1766 1038 1828 
Q 1203 1872 1538 1913 
Q 2219 1994 2541 2106 
Q 2544 2222 2544 2253 
Q 2544 2597 2384 2738 
Q 2169 2928 1744 2928 
Q 1347 2928 1158 2789 
Q 969 2650 878 2297 
L 328 2372 
Q 403 2725 575 2942 
Q 747 3159 1072 3276 
Q 1397 3394 1825 3394 
Q 2250 3394 2515 3294 
Q 2781 3194 2906 3042 
Q 3031 2891 3081 2659 
Q 3109 2516 3109 2141 
L 3109 1391 
Q 3109 606 3145 398 
Q 3181 191 3288 0 
L 2700 0 
Q 2613 175 2588 409 
z
M 2541 1666 
Q 2234 1541 1622 1453 
Q 1275 1403 1131 1340 
Q 988 1278 909 1158 
Q 831 1038 831 891 
Q 831 666 1001 516 
Q 1172 366 1500 366 
Q 1825 366 2078 508 
Q 2331 650 2450 897 
Q 2541 1088 2541 1459 
L 2541 1666 
z
M 1446 3731 
L 1861 4606 
L 2599 4606 
L 1911 3731 
L 1446 3731 
z
" transform="scale(0.015625)"/>
       <path id="ArialMT-72" d="M 416 0 
L 416 3319 
L 922 3319 
L 922 2816 
Q 1116 3169 1280 3281 
Q 1444 3394 1641 3394 
Q 1925 3394 2219 3213 
L 2025 2691 
Q 1819 2813 1613 2813 
Q 1428 2813 1281 2702 
Q 1134 2591 1072 2394 
Q 978 2094 978 1738 
L 978 0 
L 416 0 
z
" transform="scale(0.015625)"/>
       <path id="ArialMT-69" d="M 425 3934 
L 425 4581 
L 988 4581 
L 988 3934 
L 425 3934 
z
M 425 0 
L 425 3319 
L 988 3319 
L 988 0 
L 425 0 
z
" transform="scale(0.015625)"/>
       <path id="ArialMT-6f" d="M 213 1659 
Q 213 2581 725 3025 
Q 1153 3394 1769 3394 
Q 2453 3394 2887 2945 
Q 3322 2497 3322 1706 
Q 3322 1066 3130 698 
Q 2938 331 2570 128 
Q 2203 -75 1769 -75 
Q 1072 -75 642 372 
Q 213 819 213 1659 
z
M 791 1659 
Q 791 1022 1069 705 
Q 1347 388 1769 388 
Q 2188 388 2466 706 
Q 2744 1025 2744 1678 
Q 2744 2294 2464 2611 
Q 2184 2928 1769 2928 
Q 1347 2928 1069 2612 
Q 791 2297 791 1659 
z
" transform="scale(0.015625)"/>
       <path id="ArialMT-20" transform="scale(0.015625)"/>
       <path id="ArialMT-6d" d="M 422 0 
L 422 3319 
L 925 3319 
L 925 2853 
Q 1081 3097 1340 3245 
Q 1600 3394 1931 3394 
Q 2300 3394 2536 3241 
Q 2772 3088 2869 2813 
Q 3263 3394 3894 3394 
Q 4388 3394 4653 3120 
Q 4919 2847 4919 2278 
L 4919 0 
L 4359 0 
L 4359 2091 
Q 4359 2428 4304 2576 
Q 4250 2725 4106 2815 
Q 3963 2906 3769 2906 
Q 3419 2906 3187 2673 
Q 2956 2441 2956 1928 
L 2956 0 
L 2394 0 
L 2394 2156 
Q 2394 2531 2256 2718 
Q 2119 2906 1806 2906 
Q 1569 2906 1367 2781 
Q 1166 2656 1075 2415 
Q 984 2175 984 1722 
L 984 0 
L 422 0 
z
" transform="scale(0.015625)"/>
       <path id="ArialMT-e9" d="M 2694 1069 
L 3275 997 
Q 3138 488 2766 206 
Q 2394 -75 1816 -75 
Q 1088 -75 661 373 
Q 234 822 234 1631 
Q 234 2469 665 2931 
Q 1097 3394 1784 3394 
Q 2450 3394 2872 2941 
Q 3294 2488 3294 1666 
Q 3294 1616 3291 1516 
L 816 1516 
Q 847 969 1125 678 
Q 1403 388 1819 388 
Q 2128 388 2347 550 
Q 2566 713 2694 1069 
z
M 847 1978 
L 2700 1978 
Q 2663 2397 2488 2606 
Q 2219 2931 1791 2931 
Q 1403 2931 1139 2672 
Q 875 2413 847 1978 
z
M 1454 3731 
L 1869 4606 
L 2607 4606 
L 1919 3731 
L 1454 3731 
z
" transform="scale(0.015625)"/>
       <path id="ArialMT-64" d="M 2575 0 
L 2575 419 
Q 2259 -75 1647 -75 
Q 1250 -75 917 144 
Q 584 363 401 755 
Q 219 1147 219 1656 
Q 219 2153 384 2558 
Q 550 2963 881 3178 
Q 1213 3394 1622 3394 
Q 1922 3394 2156 3267 
Q 2391 3141 2538 2938 
L 2538 4581 
L 3097 4581 
L 3097 0 
L 2575 0 
z
M 797 1656 
Q 797 1019 1065 703 
Q 1334 388 1700 388 
Q 2069 388 2326 689 
Q 2584 991 2584 1609 
Q 2584 2291 2321 2609 
Q 2059 2928 1675 2928 
Q 1300 2928 1048 2622 
Q 797 2316 797 1656 
z
" transform="scale(0.015625)"/>
       <path id="ArialMT-65" d="M 2694 1069 
L 3275 997 
Q 3138 488 2766 206 
Q 2394 -75 1816 -75 
Q 1088 -75 661 373 
Q 234 822 234 1631 
Q 234 2469 665 2931 
Q 1097 3394 1784 3394 
Q 2450 3394 2872 2941 
Q 3294 2488 3294 1666 
Q 3294 1616 3291 1516 
L 816 1516 
Q 847 969 1125 678 
Q 1403 388 1819 388 
Q 2128 388 2347 550 
Q 2566 713 2694 1069 
z
M 847 1978 
L 2700 1978 
Q 2663 2397 2488 2606 
Q 2219 2931 1791 2931 
Q 1403 2931 1139 2672 
Q 875 2413 847 1978 
z
" transform="scale(0.015625)"/>
       <path id="ArialMT-6e" d="M 422 0 
L 422 3319 
L 928 3319 
L 928 2847 
Q 1294 3394 1984 3394 
Q 2284 3394 2536 3286 
Q 2788 3178 2913 3003 
Q 3038 2828 3088 2588 
Q 3119 2431 3119 2041 
L 3119 0 
L 2556 0 
L 2556 2019 
Q 2556 2363 2490 2533 
Q 2425 2703 2258 2804 
Q 2091 2906 1866 2906 
Q 1506 2906 1245 2678 
Q 984 2450 984 1813 
L 984 0 
L 422 0 
z
" transform="scale(0.015625)"/>
       <path id="ArialMT-73" d="M 197 991 
L 753 1078 
Q 800 744 1014 566 
Q 1228 388 1613 388 
Q 2000 388 2187 545 
Q 2375 703 2375 916 
Q 2375 1106 2209 1216 
Q 2094 1291 1634 1406 
Q 1016 1563 777 1677 
Q 538 1791 414 1992 
Q 291 2194 291 2438 
Q 291 2659 392 2848 
Q 494 3038 669 3163 
Q 800 3259 1026 3326 
Q 1253 3394 1513 3394 
Q 1903 3394 2198 3281 
Q 2494 3169 2634 2976 
Q 2775 2784 2828 2463 
L 2278 2388 
Q 2241 2644 2061 2787 
Q 1881 2931 1553 2931 
Q 1166 2931 1000 2803 
Q 834 2675 834 2503 
Q 834 2394 903 2306 
Q 972 2216 1119 2156 
Q 1203 2125 1616 2013 
Q 2213 1853 2448 1751 
Q 2684 1650 2818 1456 
Q 2953 1263 2953 975 
Q 2953 694 2789 445 
Q 2625 197 2315 61 
Q 2006 -75 1616 -75 
Q 969 -75 630 194 
Q 291 463 197 991 
z
" transform="scale(0.015625)"/>
      </defs>
      <use xlink:href="#ArialMT-53"/>
      <use xlink:href="#ArialMT-61" transform="translate(66.699219 0)"/>
      <use xlink:href="#ArialMT-6c" transform="translate(122.314453 0)"/>
      <use xlink:href="#ArialMT-e1" transform="translate(144.53125 0)"/>
      <use xlink:href="#ArialMT-72" transform="translate(200.146484 0)"/>
      <use xlink:href="#ArialMT-69" transform="translate(233.447266 0)"/>
      <use xlink:href="#ArialMT-6f" transform="translate(255.664062 0)"/>
      <use xlink:href="#ArialMT-20" transform="translate(311.279297 0)"/>
      <use xlink:href="#ArialMT-6d" transform="translate(339.0625 0)"/>
      <use xlink:href="#ArialMT-e9" transform="translate(422.363281 0)"/>
      <use xlink:href="#ArialMT-64" transform="translate(477.978516 0)"/>
      <use xlink:href="#ArialMT-69" transform="translate(533.59375 0)"/>
      <use xlink:href="#ArialMT-6f" transform="translate(555.810547 0)"/>
      <use xlink:href="#ArialMT-20" transform="translate(611.425781 0)"/>
      <use xlink:href="#ArialMT-6d" transform="translate(639.208984 0)"/>
      <use xlink:href="#ArialMT-65" transform="translate(722.509766 0)"/>
      <use xlink:href="#ArialMT-6e" transform="translate(778.125 0)"/>
      <use xlink:href="#ArialMT-73" transform="translate(833.740234 0)"/>
      <use xlink:href="#ArialMT-61" transform="translate(883.740234 0)"/>
      <use xlink:href="#ArialMT-6c" transform="translate(939.355469 0)"/>
     </g>
    </g>
   </g>
   <g id="matplotlib.axis_2">
    <g id="ytick_1">
     <g id="line2d_8">
      <path d="M 43.955313 210.66754 
L 341.555313 210.66754 
" clip-path="url(#p2f7ff9d2b6)" style="fill: none; stroke: #cccccc; stroke-linecap: round"/>
     </g>
     <g id="text_9">
      <!-- 0 -->
      <g style="fill: #262626" transform="translate(28.338281 214.604337) scale(0.11 -0.11)">
       <use xlink:href="#ArialMT-30"/>
      </g>
     </g>
    </g>
    <g id="ytick_2">
     <g id="line2d_9">
      <path d="M 43.955313 180.710093 
L 341.555313 180.710093 
" clip-path="url(#p2f7ff9d2b6)" style="fill: none; stroke: #cccccc; stroke-linecap: round"/>
     </g>
     <g id="text_10">
      <!-- 2 -->
      <g style="fill: #262626" transform="translate(28.338281 184.64689) scale(0.11 -0.11)">
       <use xlink:href="#ArialMT-32"/>
      </g>
     </g>
    </g>
    <g id="ytick_3">
     <g id="line2d_10">
      <path d="M 43.955313 150.752646 
L 341.555313 150.752646 
" clip-path="url(#p2f7ff9d2b6)" style="fill: none; stroke: #cccccc; stroke-linecap: round"/>
     </g>
     <g id="text_11">
      <!-- 4 -->
      <g style="fill: #262626" transform="translate(28.338281 154.689443) scale(0.11 -0.11)">
       <use xlink:href="#ArialMT-34"/>
      </g>
     </g>
    </g>
    <g id="ytick_4">
     <g id="line2d_11">
      <path d="M 43.955313 120.795199 
L 341.555313 120.795199 
" clip-path="url(#p2f7ff9d2b6)" style="fill: none; stroke: #cccccc; stroke-linecap: round"/>
     </g>
     <g id="text_12">
      <!-- 6 -->
      <g style="fill: #262626" transform="translate(28.338281 124.731996) scale(0.11 -0.11)">
       <use xlink:href="#ArialMT-36"/>
      </g>
     </g>
    </g>
    <g id="ytick_5">
     <g id="line2d_12">
      <path d="M 43.955313 90.837753 
L 341.555313 90.837753 
" clip-path="url(#p2f7ff9d2b6)" style="fill: none; stroke: #cccccc; stroke-linecap: round"/>
     </g>
     <g id="text_13">
      <!-- 8 -->
      <g style="fill: #262626" transform="translate(28.338281 94.77455) scale(0.11 -0.11)">
       <use xlink:href="#ArialMT-38"/>
      </g>
     </g>
    </g>
    <g id="ytick_6">
     <g id="line2d_13">
      <path d="M 43.955313 60.880306 
L 341.555313 60.880306 
" clip-path="url(#p2f7ff9d2b6)" style="fill: none; stroke: #cccccc; stroke-linecap: round"/>
     </g>
     <g id="text_14">
      <!-- 10 -->
      <g style="fill: #262626" transform="translate(22.22125 64.817103) scale(0.11 -0.11)">
       <use xlink:href="#ArialMT-31"/>
       <use xlink:href="#ArialMT-30" transform="translate(55.615234 0)"/>
      </g>
     </g>
    </g>
    <g id="ytick_7">
     <g id="line2d_14">
      <path d="M 43.955313 30.922859 
L 341.555313 30.922859 
" clip-path="url(#p2f7ff9d2b6)" style="fill: none; stroke: #cccccc; stroke-linecap: round"/>
     </g>
     <g id="text_15">
      <!-- 12 -->
      <g style="fill: #262626" transform="translate(22.22125 34.859656) scale(0.11 -0.11)">
       <use xlink:href="#ArialMT-31"/>
       <use xlink:href="#ArialMT-32" transform="translate(55.615234 0)"/>
      </g>
     </g>
    </g>
    <g id="text_16">
     <!-- Frequência -->
     <g style="fill: #262626" transform="translate(15.83625 146.316582) rotate(-90) scale(0.12 -0.12)">
      <defs>
       <path id="ArialMT-46" d="M 525 0 
L 525 4581 
L 3616 4581 
L 3616 4041 
L 1131 4041 
L 1131 2622 
L 3281 2622 
L 3281 2081 
L 1131 2081 
L 1131 0 
L 525 0 
z
" transform="scale(0.015625)"/>
       <path id="ArialMT-71" d="M 2538 -1272 
L 2538 353 
Q 2406 169 2170 47 
Q 1934 -75 1669 -75 
Q 1078 -75 651 397 
Q 225 869 225 1691 
Q 225 2191 398 2587 
Q 572 2984 901 3189 
Q 1231 3394 1625 3394 
Q 2241 3394 2594 2875 
L 2594 3319 
L 3100 3319 
L 3100 -1272 
L 2538 -1272 
z
M 803 1669 
Q 803 1028 1072 708 
Q 1341 388 1716 388 
Q 2075 388 2334 692 
Q 2594 997 2594 1619 
Q 2594 2281 2320 2615 
Q 2047 2950 1678 2950 
Q 1313 2950 1058 2639 
Q 803 2328 803 1669 
z
" transform="scale(0.015625)"/>
       <path id="ArialMT-75" d="M 2597 0 
L 2597 488 
Q 2209 -75 1544 -75 
Q 1250 -75 995 37 
Q 741 150 617 320 
Q 494 491 444 738 
Q 409 903 409 1263 
L 409 3319 
L 972 3319 
L 972 1478 
Q 972 1038 1006 884 
Q 1059 663 1231 536 
Q 1403 409 1656 409 
Q 1909 409 2131 539 
Q 2353 669 2445 892 
Q 2538 1116 2538 1541 
L 2538 3319 
L 3100 3319 
L 3100 0 
L 2597 0 
z
" transform="scale(0.015625)"/>
       <path id="ArialMT-ea" d="M 2694 1069 
L 3275 997 
Q 3138 488 2766 206 
Q 2394 -75 1816 -75 
Q 1088 -75 661 373 
Q 234 822 234 1631 
Q 234 2469 665 2931 
Q 1097 3394 1784 3394 
Q 2450 3394 2872 2941 
Q 3294 2488 3294 1666 
Q 3294 1616 3291 1516 
L 816 1516 
Q 847 969 1125 678 
Q 1403 388 1819 388 
Q 2128 388 2347 550 
Q 2566 713 2694 1069 
z
M 847 1978 
L 2700 1978 
Q 2663 2397 2488 2606 
Q 2219 2931 1791 2931 
Q 1403 2931 1139 2672 
Q 875 2413 847 1978 
z
M 1771 4263 
L 1418 3731 
L 774 3731 
L 1449 4606 
L 2049 4606 
L 2752 3731 
L 2115 3731 
L 1771 4263 
z
" transform="scale(0.015625)"/>
       <path id="ArialMT-63" d="M 2588 1216 
L 3141 1144 
Q 3050 572 2676 248 
Q 2303 -75 1759 -75 
Q 1078 -75 664 370 
Q 250 816 250 1647 
Q 250 2184 428 2587 
Q 606 2991 970 3192 
Q 1334 3394 1763 3394 
Q 2303 3394 2647 3120 
Q 2991 2847 3088 2344 
L 2541 2259 
Q 2463 2594 2264 2762 
Q 2066 2931 1784 2931 
Q 1359 2931 1093 2626 
Q 828 2322 828 1663 
Q 828 994 1084 691 
Q 1341 388 1753 388 
Q 2084 388 2306 591 
Q 2528 794 2588 1216 
z
" transform="scale(0.015625)"/>
      </defs>
      <use xlink:href="#ArialMT-46"/>
      <use xlink:href="#ArialMT-72" transform="translate(61.083984 0)"/>
      <use xlink:href="#ArialMT-65" transform="translate(94.384766 0)"/>
      <use xlink:href="#ArialMT-71" transform="translate(150 0)"/>
      <use xlink:href="#ArialMT-75" transform="translate(205.615234 0)"/>
      <use xlink:href="#ArialMT-ea" transform="translate(261.230469 0)"/>
      <use xlink:href="#ArialMT-6e" transform="translate(316.845703 0)"/>
      <use xlink:href="#ArialMT-63" transform="translate(372.460938 0)"/>
      <use xlink:href="#ArialMT-69" transform="translate(422.460938 0)"/>
      <use xlink:href="#ArialMT-61" transform="translate(444.677734 0)"/>
     </g>
    </g>
   </g>
   <g id="patch_3">
    <path d="M 57.482585 210.66754 
L 96.131936 210.66754 
L 96.131936 150.752646 
L 57.482585 150.752646 
z
" clip-path="url(#p2f7ff9d2b6)" style="fill: #4c78a8; fill-opacity: 0.5; stroke: #ffffff; stroke-linejoin: miter"/>
   </g>
   <g id="patch_4">
    <path d="M 96.131936 210.66754 
L 134.781287 210.66754 
L 134.781287 30.922859 
L 96.131936 30.922859 
z
" clip-path="url(#p2f7ff9d2b6)" style="fill: #4c78a8; fill-opacity: 0.5; stroke: #ffffff; stroke-linejoin: miter"/>
   </g>
   <g id="patch_5">
    <path d="M 134.781287 210.66754 
L 173.430637 210.66754 
L 173.430637 105.816476 
L 134.781287 105.816476 
z
" clip-path="url(#p2f7ff9d2b6)" style="fill: #4c78a8; fill-opacity: 0.5; stroke: #ffffff; stroke-linejoin: miter"/>
   </g>
   <g id="patch_6">
    <path d="M 173.430637 210.66754 
L 212.079988 210.66754 
L 212.079988 165.73137 
L 173.430637 165.73137 
z
" clip-path="url(#p2f7ff9d2b6)" style="fill: #4c78a8; fill-opacity: 0.5; stroke: #ffffff; stroke-linejoin: miter"/>
   </g>
   <g id="patch_7">
    <path d="M 212.079988 210.66754 
L 250.729338 210.66754 
L 250.729338 165.73137 
L 212.079988 165.73137 
z
" clip-path="url(#p2f7ff9d2b6)" style="fill: #4c78a8; fill-opacity: 0.5; stroke: #ffffff; stroke-linejoin: miter"/>
   </g>
   <g id="patch_8">
    <path d="M 250.729338 210.66754 
L 289.378689 210.66754 
L 289.378689 210.66754 
L 250.729338 210.66754 
z
" clip-path="url(#p2f7ff9d2b6)" style="fill: #4c78a8; fill-opacity: 0.5; stroke: #ffffff; stroke-linejoin: miter"/>
   </g>
   <g id="patch_9">
    <path d="M 289.378689 210.66754 
L 328.02804 210.66754 
L 328.02804 195.688816 
L 289.378689 195.688816 
z
" clip-path="url(#p2f7ff9d2b6)" style="fill: #4c78a8; fill-opacity: 0.5; stroke: #ffffff; stroke-linejoin: miter"/>
   </g>
   <g id="line2d_15">
    <path d="M 57.482585 163.466613 
L 61.56116 156.637947 
L 66.99926 146.97271 
L 73.796884 134.304063 
L 83.313558 116.462001 
L 87.392133 109.165338 
L 91.470708 102.297506 
L 94.189757 98.033246 
L 96.908807 94.072443 
L 99.627857 90.457653 
L 102.346907 87.228684 
L 105.065957 84.421733 
L 107.785006 82.068541 
L 110.504056 80.195597 
L 111.863581 79.445879 
L 113.223106 78.823413 
L 114.582631 78.329731 
L 115.942156 77.965918 
L 117.301681 77.73261 
L 118.661206 77.629977 
L 120.02073 77.657722 
L 121.380255 77.815079 
L 122.73978 78.100808 
L 124.099305 78.513206 
L 125.45883 79.050107 
L 128.17788 80.486519 
L 130.89693 82.38397 
L 133.615979 84.709968 
L 136.335029 87.426335 
L 139.054079 90.490095 
L 141.773129 93.85448 
L 145.851704 99.356085 
L 149.930278 105.250195 
L 167.604102 131.385308 
L 171.682677 136.81735 
L 175.761251 141.840625 
L 179.839826 146.416263 
L 183.918401 150.530471 
L 187.996975 154.192035 
L 192.07555 157.429155 
L 196.154125 160.285845 
L 200.232699 162.818081 
L 204.311274 165.089821 
L 209.749374 167.831009 
L 219.266048 172.273581 
L 227.423197 176.162355 
L 234.220822 179.655382 
L 241.018446 183.397232 
L 260.051795 194.082876 
L 265.489895 196.736486 
L 269.568469 198.489212 
L 273.647044 200.002956 
L 277.725619 201.257213 
L 281.804193 202.243239 
L 285.882768 202.964451 
L 289.961343 203.436087 
L 294.039917 203.684195 
L 299.478017 203.729247 
L 306.275641 203.472221 
L 322.58994 202.665803 
L 328.02804 202.657796 
L 328.02804 202.657796 
" clip-path="url(#p2f7ff9d2b6)" style="fill: none; stroke: #4c78a8; stroke-width: 1.5; stroke-linecap: round"/>
   </g>
   <g id="patch_10">
    <path d="M 43.955313 210.66754 
L 43.955313 21.935625 
" style="fill: none; stroke: #cccccc; stroke-width: 1.25; stroke-linejoin: miter; stroke-linecap: square"/>
   </g>
   <g id="patch_11">
    <path d="M 341.555313 210.66754 
L 341.555313 21.935625 
" style="fill: none; stroke: #cccccc; stroke-width: 1.25; stroke-linejoin: miter; stroke-linecap: square"/>
   </g>
   <g id="patch_12">
    <path d="M 43.955312 210.66754 
L 341.555312 210.66754 
" style="fill: none; stroke: #cccccc; stroke-width: 1.25; stroke-linejoin: miter; stroke-linecap: square"/>
   </g>
   <g id="patch_13">
    <path d="M 43.955312 21.935625 
L 341.555312 21.935625 
" style="fill: none; stroke: #cccccc; stroke-width: 1.25; stroke-linejoin: miter; stroke-linecap: square"/>
   </g>
   <g id="text_17">
    <!-- Histograma de Salários (PB) -->
    <g style="fill: #262626" transform="translate(116.730625 15.935625) scale(0.12 -0.12)">
     <defs>
      <path id="ArialMT-48" d="M 513 0 
L 513 4581 
L 1119 4581 
L 1119 2700 
L 3500 2700 
L 3500 4581 
L 4106 4581 
L 4106 0 
L 3500 0 
L 3500 2159 
L 1119 2159 
L 1119 0 
L 513 0 
z
" transform="scale(0.015625)"/>
      <path id="ArialMT-74" d="M 1650 503 
L 1731 6 
Q 1494 -44 1306 -44 
Q 1000 -44 831 53 
Q 663 150 594 308 
Q 525 466 525 972 
L 525 2881 
L 113 2881 
L 113 3319 
L 525 3319 
L 525 4141 
L 1084 4478 
L 1084 3319 
L 1650 3319 
L 1650 2881 
L 1084 2881 
L 1084 941 
Q 1084 700 1114 631 
Q 1144 563 1211 522 
Q 1278 481 1403 481 
Q 1497 481 1650 503 
z
" transform="scale(0.015625)"/>
      <path id="ArialMT-67" d="M 319 -275 
L 866 -356 
Q 900 -609 1056 -725 
Q 1266 -881 1628 -881 
Q 2019 -881 2231 -725 
Q 2444 -569 2519 -288 
Q 2563 -116 2559 434 
Q 2191 0 1641 0 
Q 956 0 581 494 
Q 206 988 206 1678 
Q 206 2153 378 2554 
Q 550 2956 876 3175 
Q 1203 3394 1644 3394 
Q 2231 3394 2613 2919 
L 2613 3319 
L 3131 3319 
L 3131 450 
Q 3131 -325 2973 -648 
Q 2816 -972 2473 -1159 
Q 2131 -1347 1631 -1347 
Q 1038 -1347 672 -1080 
Q 306 -813 319 -275 
z
M 784 1719 
Q 784 1066 1043 766 
Q 1303 466 1694 466 
Q 2081 466 2343 764 
Q 2606 1063 2606 1700 
Q 2606 2309 2336 2618 
Q 2066 2928 1684 2928 
Q 1309 2928 1046 2623 
Q 784 2319 784 1719 
z
" transform="scale(0.015625)"/>
      <path id="ArialMT-28" d="M 1497 -1347 
Q 1031 -759 709 28 
Q 388 816 388 1659 
Q 388 2403 628 3084 
Q 909 3875 1497 4659 
L 1900 4659 
Q 1522 4009 1400 3731 
Q 1209 3300 1100 2831 
Q 966 2247 966 1656 
Q 966 153 1900 -1347 
L 1497 -1347 
z
" transform="scale(0.015625)"/>
      <path id="ArialMT-50" d="M 494 0 
L 494 4581 
L 2222 4581 
Q 2678 4581 2919 4538 
Q 3256 4481 3484 4323 
Q 3713 4166 3852 3881 
Q 3991 3597 3991 3256 
Q 3991 2672 3619 2267 
Q 3247 1863 2275 1863 
L 1100 1863 
L 1100 0 
L 494 0 
z
M 1100 2403 
L 2284 2403 
Q 2872 2403 3119 2622 
Q 3366 2841 3366 3238 
Q 3366 3525 3220 3729 
Q 3075 3934 2838 4000 
Q 2684 4041 2272 4041 
L 1100 4041 
L 1100 2403 
z
" transform="scale(0.015625)"/>
      <path id="ArialMT-42" d="M 469 0 
L 469 4581 
L 2188 4581 
Q 2713 4581 3030 4442 
Q 3347 4303 3526 4014 
Q 3706 3725 3706 3409 
Q 3706 3116 3547 2856 
Q 3388 2597 3066 2438 
Q 3481 2316 3704 2022 
Q 3928 1728 3928 1328 
Q 3928 1006 3792 729 
Q 3656 453 3456 303 
Q 3256 153 2954 76 
Q 2653 0 2216 0 
L 469 0 
z
M 1075 2656 
L 2066 2656 
Q 2469 2656 2644 2709 
Q 2875 2778 2992 2937 
Q 3109 3097 3109 3338 
Q 3109 3566 3000 3739 
Q 2891 3913 2687 3977 
Q 2484 4041 1991 4041 
L 1075 4041 
L 1075 2656 
z
M 1075 541 
L 2216 541 
Q 2509 541 2628 563 
Q 2838 600 2978 687 
Q 3119 775 3209 942 
Q 3300 1109 3300 1328 
Q 3300 1584 3169 1773 
Q 3038 1963 2805 2039 
Q 2572 2116 2134 2116 
L 1075 2116 
L 1075 541 
z
" transform="scale(0.015625)"/>
      <path id="ArialMT-29" d="M 791 -1347 
L 388 -1347 
Q 1322 153 1322 1656 
Q 1322 2244 1188 2822 
Q 1081 3291 891 3722 
Q 769 4003 388 4659 
L 791 4659 
Q 1378 3875 1659 3084 
Q 1900 2403 1900 1659 
Q 1900 816 1576 28 
Q 1253 -759 791 -1347 
z
" transform="scale(0.015625)"/>
     </defs>
     <use xlink:href="#ArialMT-48"/>
     <use xlink:href="#ArialMT-69" transform="translate(72.216797 0)"/>
     <use xlink:href="#ArialMT-73" transform="translate(94.433594 0)"/>
     <use xlink:href="#ArialMT-74" transform="translate(144.433594 0)"/>
     <use xlink:href="#ArialMT-6f" transform="translate(172.216797 0)"/>
     <use xlink:href="#ArialMT-67" transform="translate(227.832031 0)"/>
     <use xlink:href="#ArialMT-72" transform="translate(283.447266 0)"/>
     <use xlink:href="#ArialMT-61" transform="translate(316.748047 0)"/>
     <use xlink:href="#ArialMT-6d" transform="translate(372.363281 0)"/>
     <use xlink:href="#ArialMT-61" transform="translate(455.664062 0)"/>
     <use xlink:href="#ArialMT-20" transform="translate(511.279297 0)"/>
     <use xlink:href="#ArialMT-64" transform="translate(539.0625 0)"/>
     <use xlink:href="#ArialMT-65" transform="translate(594.677734 0)"/>
     <use xlink:href="#ArialMT-20" transform="translate(650.292969 0)"/>
     <use xlink:href="#ArialMT-53" transform="translate(678.076172 0)"/>
     <use xlink:href="#ArialMT-61" transform="translate(744.775391 0)"/>
     <use xlink:href="#ArialMT-6c" transform="translate(800.390625 0)"/>
     <use xlink:href="#ArialMT-e1" transform="translate(822.607422 0)"/>
     <use xlink:href="#ArialMT-72" transform="translate(878.222656 0)"/>
     <use xlink:href="#ArialMT-69" transform="translate(911.523438 0)"/>
     <use xlink:href="#ArialMT-6f" transform="translate(933.740234 0)"/>
     <use xlink:href="#ArialMT-73" transform="translate(989.355469 0)"/>
     <use xlink:href="#ArialMT-20" transform="translate(1039.355469 0)"/>
     <use xlink:href="#ArialMT-28" transform="translate(1067.138672 0)"/>
     <use xlink:href="#ArialMT-50" transform="translate(1100.439453 0)"/>
     <use xlink:href="#ArialMT-42" transform="translate(1167.138672 0)"/>
     <use xlink:href="#ArialMT-29" transform="translate(1233.837891 0)"/>
    </g>
   </g>
  </g>
  <g id="axes_2">
   <g id="patch_14">
    <path d="M 415.955312 210.66754 
L 713.555313 210.66754 
L 713.555313 21.935625 
L 415.955312 21.935625 
z
" style="fill: #ffffff"/>
   </g>
   <g id="matplotlib.axis_3">
    <g id="xtick_8">
     <g id="line2d_16">
      <path d="M 429.482585 210.66754 
L 429.482585 21.935625 
" clip-path="url(#p6f9fb7098c)" style="fill: none; stroke: #cccccc; stroke-linecap: round"/>
     </g>
     <g id="text_18">
      <!-- 1.4 -->
      <g style="fill: #262626" transform="translate(421.837585 228.041134) scale(0.11 -0.11)">
       <use xlink:href="#ArialMT-31"/>
       <use xlink:href="#ArialMT-2e" transform="translate(55.615234 0)"/>
       <use xlink:href="#ArialMT-34" transform="translate(83.398438 0)"/>
      </g>
     </g>
    </g>
    <g id="xtick_9">
     <g id="line2d_17">
      <path d="M 471.104963 210.66754 
L 471.104963 21.935625 
" clip-path="url(#p6f9fb7098c)" style="fill: none; stroke: #cccccc; stroke-linecap: round"/>
     </g>
     <g id="text_19">
      <!-- 1.6 -->
      <g style="fill: #262626" transform="translate(463.459963 228.041134) scale(0.11 -0.11)">
       <use xlink:href="#ArialMT-31"/>
       <use xlink:href="#ArialMT-2e" transform="translate(55.615234 0)"/>
       <use xlink:href="#ArialMT-36" transform="translate(83.398438 0)"/>
      </g>
     </g>
    </g>
    <g id="xtick_10">
     <g id="line2d_18">
      <path d="M 512.72734 210.66754 
L 512.72734 21.935625 
" clip-path="url(#p6f9fb7098c)" style="fill: none; stroke: #cccccc; stroke-linecap: round"/>
     </g>
     <g id="text_20">
      <!-- 1.8 -->
      <g style="fill: #262626" transform="translate(505.08234 228.041134) scale(0.11 -0.11)">
       <use xlink:href="#ArialMT-31"/>
       <use xlink:href="#ArialMT-2e" transform="translate(55.615234 0)"/>
       <use xlink:href="#ArialMT-38" transform="translate(83.398438 0)"/>
      </g>
     </g>
    </g>
    <g id="xtick_11">
     <g id="line2d_19">
      <path d="M 554.349718 210.66754 
L 554.349718 21.935625 
" clip-path="url(#p6f9fb7098c)" style="fill: none; stroke: #cccccc; stroke-linecap: round"/>
     </g>
     <g id="text_21">
      <!-- 2.0 -->
      <g style="fill: #262626" transform="translate(546.704718 228.041134) scale(0.11 -0.11)">
       <use xlink:href="#ArialMT-32"/>
       <use xlink:href="#ArialMT-2e" transform="translate(55.615234 0)"/>
       <use xlink:href="#ArialMT-30" transform="translate(83.398438 0)"/>
      </g>
     </g>
    </g>
    <g id="xtick_12">
     <g id="line2d_20">
      <path d="M 595.972096 210.66754 
L 595.972096 21.935625 
" clip-path="url(#p6f9fb7098c)" style="fill: none; stroke: #cccccc; stroke-linecap: round"/>
     </g>
     <g id="text_22">
      <!-- 2.2 -->
      <g style="fill: #262626" transform="translate(588.327096 228.041134) scale(0.11 -0.11)">
       <use xlink:href="#ArialMT-32"/>
       <use xlink:href="#ArialMT-2e" transform="translate(55.615234 0)"/>
       <use xlink:href="#ArialMT-32" transform="translate(83.398438 0)"/>
      </g>
     </g>
    </g>
    <g id="xtick_13">
     <g id="line2d_21">
      <path d="M 637.594473 210.66754 
L 637.594473 21.935625 
" clip-path="url(#p6f9fb7098c)" style="fill: none; stroke: #cccccc; stroke-linecap: round"/>
     </g>
     <g id="text_23">
      <!-- 2.4 -->
      <g style="fill: #262626" transform="translate(629.949473 228.041134) scale(0.11 -0.11)">
       <use xlink:href="#ArialMT-32"/>
       <use xlink:href="#ArialMT-2e" transform="translate(55.615234 0)"/>
       <use xlink:href="#ArialMT-34" transform="translate(83.398438 0)"/>
      </g>
     </g>
    </g>
    <g id="xtick_14">
     <g id="line2d_22">
      <path d="M 679.216851 210.66754 
L 679.216851 21.935625 
" clip-path="url(#p6f9fb7098c)" style="fill: none; stroke: #cccccc; stroke-linecap: round"/>
     </g>
     <g id="text_24">
      <!-- 2.6 -->
      <g style="fill: #262626" transform="translate(671.571851 228.041134) scale(0.11 -0.11)">
       <use xlink:href="#ArialMT-32"/>
       <use xlink:href="#ArialMT-2e" transform="translate(55.615234 0)"/>
       <use xlink:href="#ArialMT-36" transform="translate(83.398438 0)"/>
      </g>
     </g>
    </g>
    <g id="text_25">
     <!-- Salário médio mensal -->
     <g style="fill: #262626" transform="translate(507.064375 242.816759) scale(0.12 -0.12)">
      <use xlink:href="#ArialMT-53"/>
      <use xlink:href="#ArialMT-61" transform="translate(66.699219 0)"/>
      <use xlink:href="#ArialMT-6c" transform="translate(122.314453 0)"/>
      <use xlink:href="#ArialMT-e1" transform="translate(144.53125 0)"/>
      <use xlink:href="#ArialMT-72" transform="translate(200.146484 0)"/>
      <use xlink:href="#ArialMT-69" transform="translate(233.447266 0)"/>
      <use xlink:href="#ArialMT-6f" transform="translate(255.664062 0)"/>
      <use xlink:href="#ArialMT-20" transform="translate(311.279297 0)"/>
      <use xlink:href="#ArialMT-6d" transform="translate(339.0625 0)"/>
      <use xlink:href="#ArialMT-e9" transform="translate(422.363281 0)"/>
      <use xlink:href="#ArialMT-64" transform="translate(477.978516 0)"/>
      <use xlink:href="#ArialMT-69" transform="translate(533.59375 0)"/>
      <use xlink:href="#ArialMT-6f" transform="translate(555.810547 0)"/>
      <use xlink:href="#ArialMT-20" transform="translate(611.425781 0)"/>
      <use xlink:href="#ArialMT-6d" transform="translate(639.208984 0)"/>
      <use xlink:href="#ArialMT-65" transform="translate(722.509766 0)"/>
      <use xlink:href="#ArialMT-6e" transform="translate(778.125 0)"/>
      <use xlink:href="#ArialMT-73" transform="translate(833.740234 0)"/>
      <use xlink:href="#ArialMT-61" transform="translate(883.740234 0)"/>
      <use xlink:href="#ArialMT-6c" transform="translate(939.355469 0)"/>
     </g>
    </g>
   </g>
   <g id="matplotlib.axis_4">
    <g id="ytick_8"/>
   </g>
   <g id="patch_15">
    <path d="M 471.104963 40.808816 
L 471.104963 191.794348 
L 533.538529 191.794348 
L 533.538529 40.808816 
L 471.104963 40.808816 
z
" clip-path="url(#p6f9fb7098c)" style="fill: #58789c; stroke: #494949; stroke-linejoin: miter"/>
   </g>
   <g id="line2d_23">
    <path d="M 471.104963 116.301582 
L 429.482585 116.301582 
" clip-path="url(#p6f9fb7098c)" style="fill: none; stroke: #494949"/>
   </g>
   <g id="line2d_24">
    <path d="M 533.538529 116.301582 
L 616.783285 116.301582 
" clip-path="url(#p6f9fb7098c)" style="fill: none; stroke: #494949"/>
   </g>
   <g id="line2d_25">
    <path d="M 429.482585 78.555199 
L 429.482585 154.047965 
" clip-path="url(#p6f9fb7098c)" style="fill: none; stroke: #494949; stroke-linecap: round"/>
   </g>
   <g id="line2d_26">
    <path d="M 616.783285 78.555199 
L 616.783285 154.047965 
" clip-path="url(#p6f9fb7098c)" style="fill: none; stroke: #494949; stroke-linecap: round"/>
   </g>
   <g id="line2d_27">
    <defs>
     <path id="m9b763d8820" d="M 0 3 
C 0.795609 3 1.55874 2.683901 2.12132 2.12132 
C 2.683901 1.55874 3 0.795609 3 0 
C 3 -0.795609 2.683901 -1.55874 2.12132 -2.12132 
C 1.55874 -2.683901 0.795609 -3 0 -3 
C -0.795609 -3 -1.55874 -2.683901 -2.12132 -2.12132 
C -2.683901 -1.55874 -3 -0.795609 -3 0 
C -3 0.795609 -2.683901 1.55874 -2.12132 2.12132 
C -1.55874 2.683901 -0.795609 3 0 3 
z
" style="stroke: #494949"/>
    </defs>
    <g clip-path="url(#p6f9fb7098c)">
     <use xlink:href="#m9b763d8820" x="700.02804" y="116.301582" style="fill-opacity: 0; stroke: #494949"/>
    </g>
   </g>
   <g id="line2d_28">
    <path d="M 491.916152 40.808816 
L 491.916152 191.794348 
" clip-path="url(#p6f9fb7098c)" style="fill: none; stroke: #494949"/>
   </g>
   <g id="patch_16">
    <path d="M 415.955312 210.66754 
L 415.955312 21.935625 
" style="fill: none; stroke: #cccccc; stroke-width: 1.25; stroke-linejoin: miter; stroke-linecap: square"/>
   </g>
   <g id="patch_17">
    <path d="M 713.555313 210.66754 
L 713.555313 21.935625 
" style="fill: none; stroke: #cccccc; stroke-width: 1.25; stroke-linejoin: miter; stroke-linecap: square"/>
   </g>
   <g id="patch_18">
    <path d="M 415.955312 210.66754 
L 713.555312 210.66754 
" style="fill: none; stroke: #cccccc; stroke-width: 1.25; stroke-linejoin: miter; stroke-linecap: square"/>
   </g>
   <g id="patch_19">
    <path d="M 415.955312 21.935625 
L 713.555312 21.935625 
" style="fill: none; stroke: #cccccc; stroke-width: 1.25; stroke-linejoin: miter; stroke-linecap: square"/>
   </g>
   <g id="text_26">
    <!-- Boxplot de Salários (PB) -->
    <g style="fill: #262626" transform="translate(499.39375 15.935625) scale(0.12 -0.12)">
     <defs>
      <path id="ArialMT-78" d="M 47 0 
L 1259 1725 
L 138 3319 
L 841 3319 
L 1350 2541 
Q 1494 2319 1581 2169 
Q 1719 2375 1834 2534 
L 2394 3319 
L 3066 3319 
L 1919 1756 
L 3153 0 
L 2463 0 
L 1781 1031 
L 1600 1309 
L 728 0 
L 47 0 
z
" transform="scale(0.015625)"/>
      <path id="ArialMT-70" d="M 422 -1272 
L 422 3319 
L 934 3319 
L 934 2888 
Q 1116 3141 1344 3267 
Q 1572 3394 1897 3394 
Q 2322 3394 2647 3175 
Q 2972 2956 3137 2557 
Q 3303 2159 3303 1684 
Q 3303 1175 3120 767 
Q 2938 359 2589 142 
Q 2241 -75 1856 -75 
Q 1575 -75 1351 44 
Q 1128 163 984 344 
L 984 -1272 
L 422 -1272 
z
M 931 1641 
Q 931 1000 1190 694 
Q 1450 388 1819 388 
Q 2194 388 2461 705 
Q 2728 1022 2728 1688 
Q 2728 2322 2467 2637 
Q 2206 2953 1844 2953 
Q 1484 2953 1207 2617 
Q 931 2281 931 1641 
z
" transform="scale(0.015625)"/>
     </defs>
     <use xlink:href="#ArialMT-42"/>
     <use xlink:href="#ArialMT-6f" transform="translate(66.699219 0)"/>
     <use xlink:href="#ArialMT-78" transform="translate(122.314453 0)"/>
     <use xlink:href="#ArialMT-70" transform="translate(172.314453 0)"/>
     <use xlink:href="#ArialMT-6c" transform="translate(227.929688 0)"/>
     <use xlink:href="#ArialMT-6f" transform="translate(250.146484 0)"/>
     <use xlink:href="#ArialMT-74" transform="translate(305.761719 0)"/>
     <use xlink:href="#ArialMT-20" transform="translate(333.544922 0)"/>
     <use xlink:href="#ArialMT-64" transform="translate(361.328125 0)"/>
     <use xlink:href="#ArialMT-65" transform="translate(416.943359 0)"/>
     <use xlink:href="#ArialMT-20" transform="translate(472.558594 0)"/>
     <use xlink:href="#ArialMT-53" transform="translate(500.341797 0)"/>
     <use xlink:href="#ArialMT-61" transform="translate(567.041016 0)"/>
     <use xlink:href="#ArialMT-6c" transform="translate(622.65625 0)"/>
     <use xlink:href="#ArialMT-e1" transform="translate(644.873047 0)"/>
     <use xlink:href="#ArialMT-72" transform="translate(700.488281 0)"/>
     <use xlink:href="#ArialMT-69" transform="translate(733.789062 0)"/>
     <use xlink:href="#ArialMT-6f" transform="translate(756.005859 0)"/>
     <use xlink:href="#ArialMT-73" transform="translate(811.621094 0)"/>
     <use xlink:href="#ArialMT-20" transform="translate(861.621094 0)"/>
     <use xlink:href="#ArialMT-28" transform="translate(889.404297 0)"/>
     <use xlink:href="#ArialMT-50" transform="translate(922.705078 0)"/>
     <use xlink:href="#ArialMT-42" transform="translate(989.404297 0)"/>
     <use xlink:href="#ArialMT-29" transform="translate(1056.103516 0)"/>
    </g>
   </g>
  </g>
  <g id="axes_3">
   <g id="patch_20">
    <path d="M 43.955313 465.455625 
L 341.555313 465.455625 
L 341.555313 276.72371 
L 43.955313 276.72371 
z
" style="fill: #ffffff"/>
   </g>
   <g id="matplotlib.axis_5">
    <g id="xtick_15">
     <g id="line2d_29">
      <path d="M 57.482585 465.455625 
L 57.482585 276.72371 
" clip-path="url(#p6fdb9d6d58)" style="fill: none; stroke: #cccccc; stroke-linecap: round"/>
     </g>
     <g id="text_27">
      <!-- 1.4 -->
      <g style="fill: #262626" transform="translate(49.837585 482.829219) scale(0.11 -0.11)">
       <use xlink:href="#ArialMT-31"/>
       <use xlink:href="#ArialMT-2e" transform="translate(55.615234 0)"/>
       <use xlink:href="#ArialMT-34" transform="translate(83.398438 0)"/>
      </g>
     </g>
    </g>
    <g id="xtick_16">
     <g id="line2d_30">
      <path d="M 111.591676 465.455625 
L 111.591676 276.72371 
" clip-path="url(#p6fdb9d6d58)" style="fill: none; stroke: #cccccc; stroke-linecap: round"/>
     </g>
     <g id="text_28">
      <!-- 1.6 -->
      <g style="fill: #262626" transform="translate(103.946676 482.829219) scale(0.11 -0.11)">
       <use xlink:href="#ArialMT-31"/>
       <use xlink:href="#ArialMT-2e" transform="translate(55.615234 0)"/>
       <use xlink:href="#ArialMT-36" transform="translate(83.398438 0)"/>
      </g>
     </g>
    </g>
    <g id="xtick_17">
     <g id="line2d_31">
      <path d="M 165.700767 465.455625 
L 165.700767 276.72371 
" clip-path="url(#p6fdb9d6d58)" style="fill: none; stroke: #cccccc; stroke-linecap: round"/>
     </g>
     <g id="text_29">
      <!-- 1.8 -->
      <g style="fill: #262626" transform="translate(158.055767 482.829219) scale(0.11 -0.11)">
       <use xlink:href="#ArialMT-31"/>
       <use xlink:href="#ArialMT-2e" transform="translate(55.615234 0)"/>
       <use xlink:href="#ArialMT-38" transform="translate(83.398438 0)"/>
      </g>
     </g>
    </g>
    <g id="xtick_18">
     <g id="line2d_32">
      <path d="M 219.809858 465.455625 
L 219.809858 276.72371 
" clip-path="url(#p6fdb9d6d58)" style="fill: none; stroke: #cccccc; stroke-linecap: round"/>
     </g>
     <g id="text_30">
      <!-- 2.0 -->
      <g style="fill: #262626" transform="translate(212.164858 482.829219) scale(0.11 -0.11)">
       <use xlink:href="#ArialMT-32"/>
       <use xlink:href="#ArialMT-2e" transform="translate(55.615234 0)"/>
       <use xlink:href="#ArialMT-30" transform="translate(83.398438 0)"/>
      </g>
     </g>
    </g>
    <g id="xtick_19">
     <g id="line2d_33">
      <path d="M 273.918949 465.455625 
L 273.918949 276.72371 
" clip-path="url(#p6fdb9d6d58)" style="fill: none; stroke: #cccccc; stroke-linecap: round"/>
     </g>
     <g id="text_31">
      <!-- 2.2 -->
      <g style="fill: #262626" transform="translate(266.273949 482.829219) scale(0.11 -0.11)">
       <use xlink:href="#ArialMT-32"/>
       <use xlink:href="#ArialMT-2e" transform="translate(55.615234 0)"/>
       <use xlink:href="#ArialMT-32" transform="translate(83.398438 0)"/>
      </g>
     </g>
    </g>
    <g id="xtick_20">
     <g id="line2d_34">
      <path d="M 328.02804 465.455625 
L 328.02804 276.72371 
" clip-path="url(#p6fdb9d6d58)" style="fill: none; stroke: #cccccc; stroke-linecap: round"/>
     </g>
     <g id="text_32">
      <!-- 2.4 -->
      <g style="fill: #262626" transform="translate(320.38304 482.829219) scale(0.11 -0.11)">
       <use xlink:href="#ArialMT-32"/>
       <use xlink:href="#ArialMT-2e" transform="translate(55.615234 0)"/>
       <use xlink:href="#ArialMT-34" transform="translate(83.398438 0)"/>
      </g>
     </g>
    </g>
    <g id="text_33">
     <!-- Salário médio mensal -->
     <g style="fill: #262626" transform="translate(135.064375 497.604844) scale(0.12 -0.12)">
      <use xlink:href="#ArialMT-53"/>
      <use xlink:href="#ArialMT-61" transform="translate(66.699219 0)"/>
      <use xlink:href="#ArialMT-6c" transform="translate(122.314453 0)"/>
      <use xlink:href="#ArialMT-e1" transform="translate(144.53125 0)"/>
      <use xlink:href="#ArialMT-72" transform="translate(200.146484 0)"/>
      <use xlink:href="#ArialMT-69" transform="translate(233.447266 0)"/>
      <use xlink:href="#ArialMT-6f" transform="translate(255.664062 0)"/>
      <use xlink:href="#ArialMT-20" transform="translate(311.279297 0)"/>
      <use xlink:href="#ArialMT-6d" transform="translate(339.0625 0)"/>
      <use xlink:href="#ArialMT-e9" transform="translate(422.363281 0)"/>
      <use xlink:href="#ArialMT-64" transform="translate(477.978516 0)"/>
      <use xlink:href="#ArialMT-69" transform="translate(533.59375 0)"/>
      <use xlink:href="#ArialMT-6f" transform="translate(555.810547 0)"/>
      <use xlink:href="#ArialMT-20" transform="translate(611.425781 0)"/>
      <use xlink:href="#ArialMT-6d" transform="translate(639.208984 0)"/>
      <use xlink:href="#ArialMT-65" transform="translate(722.509766 0)"/>
      <use xlink:href="#ArialMT-6e" transform="translate(778.125 0)"/>
      <use xlink:href="#ArialMT-73" transform="translate(833.740234 0)"/>
      <use xlink:href="#ArialMT-61" transform="translate(883.740234 0)"/>
      <use xlink:href="#ArialMT-6c" transform="translate(939.355469 0)"/>
     </g>
    </g>
   </g>
   <g id="matplotlib.axis_6">
    <g id="ytick_9">
     <g id="line2d_35">
      <path d="M 43.955313 465.455625 
L 341.555313 465.455625 
" clip-path="url(#p6fdb9d6d58)" style="fill: none; stroke: #cccccc; stroke-linecap: round"/>
     </g>
     <g id="text_34">
      <!-- 0 -->
      <g style="fill: #262626" transform="translate(28.338281 469.392422) scale(0.11 -0.11)">
       <use xlink:href="#ArialMT-30"/>
      </g>
     </g>
    </g>
    <g id="ytick_10">
     <g id="line2d_36">
      <path d="M 43.955313 435.498178 
L 341.555313 435.498178 
" clip-path="url(#p6fdb9d6d58)" style="fill: none; stroke: #cccccc; stroke-linecap: round"/>
     </g>
     <g id="text_35">
      <!-- 2 -->
      <g style="fill: #262626" transform="translate(28.338281 439.434975) scale(0.11 -0.11)">
       <use xlink:href="#ArialMT-32"/>
      </g>
     </g>
    </g>
    <g id="ytick_11">
     <g id="line2d_37">
      <path d="M 43.955313 405.540731 
L 341.555313 405.540731 
" clip-path="url(#p6fdb9d6d58)" style="fill: none; stroke: #cccccc; stroke-linecap: round"/>
     </g>
     <g id="text_36">
      <!-- 4 -->
      <g style="fill: #262626" transform="translate(28.338281 409.477528) scale(0.11 -0.11)">
       <use xlink:href="#ArialMT-34"/>
      </g>
     </g>
    </g>
    <g id="ytick_12">
     <g id="line2d_38">
      <path d="M 43.955313 375.583285 
L 341.555313 375.583285 
" clip-path="url(#p6fdb9d6d58)" style="fill: none; stroke: #cccccc; stroke-linecap: round"/>
     </g>
     <g id="text_37">
      <!-- 6 -->
      <g style="fill: #262626" transform="translate(28.338281 379.520081) scale(0.11 -0.11)">
       <use xlink:href="#ArialMT-36"/>
      </g>
     </g>
    </g>
    <g id="ytick_13">
     <g id="line2d_39">
      <path d="M 43.955313 345.625838 
L 341.555313 345.625838 
" clip-path="url(#p6fdb9d6d58)" style="fill: none; stroke: #cccccc; stroke-linecap: round"/>
     </g>
     <g id="text_38">
      <!-- 8 -->
      <g style="fill: #262626" transform="translate(28.338281 349.562635) scale(0.11 -0.11)">
       <use xlink:href="#ArialMT-38"/>
      </g>
     </g>
    </g>
    <g id="ytick_14">
     <g id="line2d_40">
      <path d="M 43.955313 315.668391 
L 341.555313 315.668391 
" clip-path="url(#p6fdb9d6d58)" style="fill: none; stroke: #cccccc; stroke-linecap: round"/>
     </g>
     <g id="text_39">
      <!-- 10 -->
      <g style="fill: #262626" transform="translate(22.22125 319.605188) scale(0.11 -0.11)">
       <use xlink:href="#ArialMT-31"/>
       <use xlink:href="#ArialMT-30" transform="translate(55.615234 0)"/>
      </g>
     </g>
    </g>
    <g id="ytick_15">
     <g id="line2d_41">
      <path d="M 43.955313 285.710944 
L 341.555313 285.710944 
" clip-path="url(#p6fdb9d6d58)" style="fill: none; stroke: #cccccc; stroke-linecap: round"/>
     </g>
     <g id="text_40">
      <!-- 12 -->
      <g style="fill: #262626" transform="translate(22.22125 289.647741) scale(0.11 -0.11)">
       <use xlink:href="#ArialMT-31"/>
       <use xlink:href="#ArialMT-32" transform="translate(55.615234 0)"/>
      </g>
     </g>
    </g>
    <g id="text_41">
     <!-- Frequência -->
     <g style="fill: #262626" transform="translate(15.83625 401.104668) rotate(-90) scale(0.12 -0.12)">
      <use xlink:href="#ArialMT-46"/>
      <use xlink:href="#ArialMT-72" transform="translate(61.083984 0)"/>
      <use xlink:href="#ArialMT-65" transform="translate(94.384766 0)"/>
      <use xlink:href="#ArialMT-71" transform="translate(150 0)"/>
      <use xlink:href="#ArialMT-75" transform="translate(205.615234 0)"/>
      <use xlink:href="#ArialMT-ea" transform="translate(261.230469 0)"/>
      <use xlink:href="#ArialMT-6e" transform="translate(316.845703 0)"/>
      <use xlink:href="#ArialMT-63" transform="translate(372.460938 0)"/>
      <use xlink:href="#ArialMT-69" transform="translate(422.460938 0)"/>
      <use xlink:href="#ArialMT-61" transform="translate(444.677734 0)"/>
     </g>
    </g>
   </g>
   <g id="patch_21">
    <path d="M 57.482585 465.455625 
L 102.573494 465.455625 
L 102.573494 435.498178 
L 57.482585 435.498178 
z
" clip-path="url(#p6fdb9d6d58)" style="fill: #e45756; fill-opacity: 0.5; stroke: #ffffff; stroke-linejoin: miter"/>
   </g>
   <g id="patch_22">
    <path d="M 102.573494 465.455625 
L 147.664403 465.455625 
L 147.664403 285.710944 
L 102.573494 285.710944 
z
" clip-path="url(#p6fdb9d6d58)" style="fill: #e45756; fill-opacity: 0.5; stroke: #ffffff; stroke-linejoin: miter"/>
   </g>
   <g id="patch_23">
    <path d="M 147.664403 465.455625 
L 192.755313 465.455625 
L 192.755313 405.540731 
L 147.664403 405.540731 
z
" clip-path="url(#p6fdb9d6d58)" style="fill: #e45756; fill-opacity: 0.5; stroke: #ffffff; stroke-linejoin: miter"/>
   </g>
   <g id="patch_24">
    <path d="M 192.755313 465.455625 
L 237.846222 465.455625 
L 237.846222 375.583285 
L 192.755313 375.583285 
z
" clip-path="url(#p6fdb9d6d58)" style="fill: #e45756; fill-opacity: 0.5; stroke: #ffffff; stroke-linejoin: miter"/>
   </g>
   <g id="patch_25">
    <path d="M 237.846222 465.455625 
L 282.937131 465.455625 
L 282.937131 420.519455 
L 237.846222 420.519455 
z
" clip-path="url(#p6fdb9d6d58)" style="fill: #e45756; fill-opacity: 0.5; stroke: #ffffff; stroke-linejoin: miter"/>
   </g>
   <g id="patch_26">
    <path d="M 282.937131 465.455625 
L 328.02804 465.455625 
L 328.02804 420.519455 
L 282.937131 420.519455 
z
" clip-path="url(#p6fdb9d6d58)" style="fill: #e45756; fill-opacity: 0.5; stroke: #ffffff; stroke-linejoin: miter"/>
   </g>
   <g id="line2d_42">
    <path d="M 57.482585 430.604616 
L 61.56116 426.715085 
L 65.639735 422.544675 
L 69.718309 418.101281 
L 75.156409 411.787183 
L 80.594508 405.105614 
L 90.111183 392.933426 
L 96.908807 384.325027 
L 102.346907 377.81517 
L 106.425482 373.30086 
L 110.504056 369.201973 
L 113.223106 366.73987 
L 115.942156 364.518071 
L 118.661206 362.553453 
L 121.380255 360.859263 
L 124.099305 359.444858 
L 126.818355 358.315538 
L 129.537405 357.472489 
L 132.256455 356.912826 
L 134.975504 356.62974 
L 137.694554 356.612732 
L 140.413604 356.847926 
L 143.132654 357.318459 
L 145.851704 358.004915 
L 148.570753 358.885811 
L 152.649328 360.521027 
L 156.727903 362.460072 
L 162.166002 365.37522 
L 171.682677 370.870474 
L 179.839826 375.466629 
L 185.277926 378.298984 
L 190.716025 380.900124 
L 196.154125 383.280416 
L 202.951749 386.021714 
L 219.266048 392.481743 
L 224.704148 394.907662 
L 230.142247 397.575211 
L 235.580347 400.50204 
L 241.018446 403.669705 
L 247.816071 407.886186 
L 265.489895 419.030189 
L 270.927994 422.16397 
L 276.366094 425.047124 
L 281.804193 427.659145 
L 287.242293 430.010437 
L 292.680392 432.138309 
L 299.478017 434.571298 
L 325.30899 443.515824 
L 328.02804 444.53458 
L 328.02804 444.53458 
" clip-path="url(#p6fdb9d6d58)" style="fill: none; stroke: #e45756; stroke-width: 1.5; stroke-linecap: round"/>
   </g>
   <g id="patch_27">
    <path d="M 43.955313 465.455625 
L 43.955313 276.72371 
" style="fill: none; stroke: #cccccc; stroke-width: 1.25; stroke-linejoin: miter; stroke-linecap: square"/>
   </g>
   <g id="patch_28">
    <path d="M 341.555313 465.455625 
L 341.555313 276.72371 
" style="fill: none; stroke: #cccccc; stroke-width: 1.25; stroke-linejoin: miter; stroke-linecap: square"/>
   </g>
   <g id="patch_29">
    <path d="M 43.955313 465.455625 
L 341.555313 465.455625 
" style="fill: none; stroke: #cccccc; stroke-width: 1.25; stroke-linejoin: miter; stroke-linecap: square"/>
   </g>
   <g id="patch_30">
    <path d="M 43.955313 276.72371 
L 341.555313 276.72371 
" style="fill: none; stroke: #cccccc; stroke-width: 1.25; stroke-linejoin: miter; stroke-linecap: square"/>
   </g>
   <g id="text_42">
    <!-- Histograma de Salários (RN) -->
    <g style="fill: #262626" transform="translate(116.06875 270.72371) scale(0.12 -0.12)">
     <defs>
      <path id="ArialMT-52" d="M 503 0 
L 503 4581 
L 2534 4581 
Q 3147 4581 3465 4457 
Q 3784 4334 3975 4021 
Q 4166 3709 4166 3331 
Q 4166 2844 3850 2509 
Q 3534 2175 2875 2084 
Q 3116 1969 3241 1856 
Q 3506 1613 3744 1247 
L 4541 0 
L 3778 0 
L 3172 953 
Q 2906 1366 2734 1584 
Q 2563 1803 2427 1890 
Q 2291 1978 2150 2013 
Q 2047 2034 1813 2034 
L 1109 2034 
L 1109 0 
L 503 0 
z
M 1109 2559 
L 2413 2559 
Q 2828 2559 3062 2645 
Q 3297 2731 3419 2920 
Q 3541 3109 3541 3331 
Q 3541 3656 3305 3865 
Q 3069 4075 2559 4075 
L 1109 4075 
L 1109 2559 
z
" transform="scale(0.015625)"/>
      <path id="ArialMT-4e" d="M 488 0 
L 488 4581 
L 1109 4581 
L 3516 984 
L 3516 4581 
L 4097 4581 
L 4097 0 
L 3475 0 
L 1069 3600 
L 1069 0 
L 488 0 
z
" transform="scale(0.015625)"/>
     </defs>
     <use xlink:href="#ArialMT-48"/>
     <use xlink:href="#ArialMT-69" transform="translate(72.216797 0)"/>
     <use xlink:href="#ArialMT-73" transform="translate(94.433594 0)"/>
     <use xlink:href="#ArialMT-74" transform="translate(144.433594 0)"/>
     <use xlink:href="#ArialMT-6f" transform="translate(172.216797 0)"/>
     <use xlink:href="#ArialMT-67" transform="translate(227.832031 0)"/>
     <use xlink:href="#ArialMT-72" transform="translate(283.447266 0)"/>
     <use xlink:href="#ArialMT-61" transform="translate(316.748047 0)"/>
     <use xlink:href="#ArialMT-6d" transform="translate(372.363281 0)"/>
     <use xlink:href="#ArialMT-61" transform="translate(455.664062 0)"/>
     <use xlink:href="#ArialMT-20" transform="translate(511.279297 0)"/>
     <use xlink:href="#ArialMT-64" transform="translate(539.0625 0)"/>
     <use xlink:href="#ArialMT-65" transform="translate(594.677734 0)"/>
     <use xlink:href="#ArialMT-20" transform="translate(650.292969 0)"/>
     <use xlink:href="#ArialMT-53" transform="translate(678.076172 0)"/>
     <use xlink:href="#ArialMT-61" transform="translate(744.775391 0)"/>
     <use xlink:href="#ArialMT-6c" transform="translate(800.390625 0)"/>
     <use xlink:href="#ArialMT-e1" transform="translate(822.607422 0)"/>
     <use xlink:href="#ArialMT-72" transform="translate(878.222656 0)"/>
     <use xlink:href="#ArialMT-69" transform="translate(911.523438 0)"/>
     <use xlink:href="#ArialMT-6f" transform="translate(933.740234 0)"/>
     <use xlink:href="#ArialMT-73" transform="translate(989.355469 0)"/>
     <use xlink:href="#ArialMT-20" transform="translate(1039.355469 0)"/>
     <use xlink:href="#ArialMT-28" transform="translate(1067.138672 0)"/>
     <use xlink:href="#ArialMT-52" transform="translate(1100.439453 0)"/>
     <use xlink:href="#ArialMT-4e" transform="translate(1172.65625 0)"/>
     <use xlink:href="#ArialMT-29" transform="translate(1244.873047 0)"/>
    </g>
   </g>
  </g>
  <g id="axes_4">
   <g id="patch_31">
    <path d="M 415.955312 465.455625 
L 713.555313 465.455625 
L 713.555313 276.72371 
L 415.955312 276.72371 
z
" style="fill: #ffffff"/>
   </g>
   <g id="matplotlib.axis_7">
    <g id="xtick_21">
     <g id="line2d_43">
      <path d="M 429.482585 465.455625 
L 429.482585 276.72371 
" clip-path="url(#p95b6c8407c)" style="fill: none; stroke: #cccccc; stroke-linecap: round"/>
     </g>
     <g id="text_43">
      <!-- 1.4 -->
      <g style="fill: #262626" transform="translate(421.837585 482.829219) scale(0.11 -0.11)">
       <use xlink:href="#ArialMT-31"/>
       <use xlink:href="#ArialMT-2e" transform="translate(55.615234 0)"/>
       <use xlink:href="#ArialMT-34" transform="translate(83.398438 0)"/>
      </g>
     </g>
    </g>
    <g id="xtick_22">
     <g id="line2d_44">
      <path d="M 483.591676 465.455625 
L 483.591676 276.72371 
" clip-path="url(#p95b6c8407c)" style="fill: none; stroke: #cccccc; stroke-linecap: round"/>
     </g>
     <g id="text_44">
      <!-- 1.6 -->
      <g style="fill: #262626" transform="translate(475.946676 482.829219) scale(0.11 -0.11)">
       <use xlink:href="#ArialMT-31"/>
       <use xlink:href="#ArialMT-2e" transform="translate(55.615234 0)"/>
       <use xlink:href="#ArialMT-36" transform="translate(83.398438 0)"/>
      </g>
     </g>
    </g>
    <g id="xtick_23">
     <g id="line2d_45">
      <path d="M 537.700767 465.455625 
L 537.700767 276.72371 
" clip-path="url(#p95b6c8407c)" style="fill: none; stroke: #cccccc; stroke-linecap: round"/>
     </g>
     <g id="text_45">
      <!-- 1.8 -->
      <g style="fill: #262626" transform="translate(530.055767 482.829219) scale(0.11 -0.11)">
       <use xlink:href="#ArialMT-31"/>
       <use xlink:href="#ArialMT-2e" transform="translate(55.615234 0)"/>
       <use xlink:href="#ArialMT-38" transform="translate(83.398438 0)"/>
      </g>
     </g>
    </g>
    <g id="xtick_24">
     <g id="line2d_46">
      <path d="M 591.809858 465.455625 
L 591.809858 276.72371 
" clip-path="url(#p95b6c8407c)" style="fill: none; stroke: #cccccc; stroke-linecap: round"/>
     </g>
     <g id="text_46">
      <!-- 2.0 -->
      <g style="fill: #262626" transform="translate(584.164858 482.829219) scale(0.11 -0.11)">
       <use xlink:href="#ArialMT-32"/>
       <use xlink:href="#ArialMT-2e" transform="translate(55.615234 0)"/>
       <use xlink:href="#ArialMT-30" transform="translate(83.398438 0)"/>
      </g>
     </g>
    </g>
    <g id="xtick_25">
     <g id="line2d_47">
      <path d="M 645.918949 465.455625 
L 645.918949 276.72371 
" clip-path="url(#p95b6c8407c)" style="fill: none; stroke: #cccccc; stroke-linecap: round"/>
     </g>
     <g id="text_47">
      <!-- 2.2 -->
      <g style="fill: #262626" transform="translate(638.273949 482.829219) scale(0.11 -0.11)">
       <use xlink:href="#ArialMT-32"/>
       <use xlink:href="#ArialMT-2e" transform="translate(55.615234 0)"/>
       <use xlink:href="#ArialMT-32" transform="translate(83.398438 0)"/>
      </g>
     </g>
    </g>
    <g id="xtick_26">
     <g id="line2d_48">
      <path d="M 700.02804 465.455625 
L 700.02804 276.72371 
" clip-path="url(#p95b6c8407c)" style="fill: none; stroke: #cccccc; stroke-linecap: round"/>
     </g>
     <g id="text_48">
      <!-- 2.4 -->
      <g style="fill: #262626" transform="translate(692.38304 482.829219) scale(0.11 -0.11)">
       <use xlink:href="#ArialMT-32"/>
       <use xlink:href="#ArialMT-2e" transform="translate(55.615234 0)"/>
       <use xlink:href="#ArialMT-34" transform="translate(83.398438 0)"/>
      </g>
     </g>
    </g>
    <g id="text_49">
     <!-- Salário médio mensal -->
     <g style="fill: #262626" transform="translate(507.064375 497.604844) scale(0.12 -0.12)">
      <use xlink:href="#ArialMT-53"/>
      <use xlink:href="#ArialMT-61" transform="translate(66.699219 0)"/>
      <use xlink:href="#ArialMT-6c" transform="translate(122.314453 0)"/>
      <use xlink:href="#ArialMT-e1" transform="translate(144.53125 0)"/>
      <use xlink:href="#ArialMT-72" transform="translate(200.146484 0)"/>
      <use xlink:href="#ArialMT-69" transform="translate(233.447266 0)"/>
      <use xlink:href="#ArialMT-6f" transform="translate(255.664062 0)"/>
      <use xlink:href="#ArialMT-20" transform="translate(311.279297 0)"/>
      <use xlink:href="#ArialMT-6d" transform="translate(339.0625 0)"/>
      <use xlink:href="#ArialMT-e9" transform="translate(422.363281 0)"/>
      <use xlink:href="#ArialMT-64" transform="translate(477.978516 0)"/>
      <use xlink:href="#ArialMT-69" transform="translate(533.59375 0)"/>
      <use xlink:href="#ArialMT-6f" transform="translate(555.810547 0)"/>
      <use xlink:href="#ArialMT-20" transform="translate(611.425781 0)"/>
      <use xlink:href="#ArialMT-6d" transform="translate(639.208984 0)"/>
      <use xlink:href="#ArialMT-65" transform="translate(722.509766 0)"/>
      <use xlink:href="#ArialMT-6e" transform="translate(778.125 0)"/>
      <use xlink:href="#ArialMT-73" transform="translate(833.740234 0)"/>
      <use xlink:href="#ArialMT-61" transform="translate(883.740234 0)"/>
      <use xlink:href="#ArialMT-6c" transform="translate(939.355469 0)"/>
     </g>
    </g>
   </g>
   <g id="matplotlib.axis_8">
    <g id="ytick_16"/>
   </g>
   <g id="patch_32">
    <path d="M 483.591676 295.596902 
L 483.591676 446.582434 
L 591.809858 446.582434 
L 591.809858 295.596902 
L 483.591676 295.596902 
z
" clip-path="url(#p95b6c8407c)" style="fill: #d26968; stroke: #5e5e5e; stroke-linejoin: miter"/>
   </g>
   <g id="line2d_49">
    <path d="M 483.591676 371.089668 
L 429.482585 371.089668 
" clip-path="url(#p95b6c8407c)" style="fill: none; stroke: #5e5e5e"/>
   </g>
   <g id="line2d_50">
    <path d="M 591.809858 371.089668 
L 700.02804 371.089668 
" clip-path="url(#p95b6c8407c)" style="fill: none; stroke: #5e5e5e"/>
   </g>
   <g id="line2d_51">
    <path d="M 429.482585 333.343285 
L 429.482585 408.836051 
" clip-path="url(#p95b6c8407c)" style="fill: none; stroke: #5e5e5e; stroke-linecap: round"/>
   </g>
   <g id="line2d_52">
    <path d="M 700.02804 333.343285 
L 700.02804 408.836051 
" clip-path="url(#p95b6c8407c)" style="fill: none; stroke: #5e5e5e; stroke-linecap: round"/>
   </g>
   <g id="line2d_53"/>
   <g id="line2d_54">
    <path d="M 537.700767 295.596902 
L 537.700767 446.582434 
" clip-path="url(#p95b6c8407c)" style="fill: none; stroke: #5e5e5e"/>
   </g>
   <g id="patch_33">
    <path d="M 415.955312 465.455625 
L 415.955312 276.72371 
" style="fill: none; stroke: #cccccc; stroke-width: 1.25; stroke-linejoin: miter; stroke-linecap: square"/>
   </g>
   <g id="patch_34">
    <path d="M 713.555313 465.455625 
L 713.555313 276.72371 
" style="fill: none; stroke: #cccccc; stroke-width: 1.25; stroke-linejoin: miter; stroke-linecap: square"/>
   </g>
   <g id="patch_35">
    <path d="M 415.955313 465.455625 
L 713.555313 465.455625 
" style="fill: none; stroke: #cccccc; stroke-width: 1.25; stroke-linejoin: miter; stroke-linecap: square"/>
   </g>
   <g id="patch_36">
    <path d="M 415.955313 276.72371 
L 713.555313 276.72371 
" style="fill: none; stroke: #cccccc; stroke-width: 1.25; stroke-linejoin: miter; stroke-linecap: square"/>
   </g>
   <g id="text_50">
    <!-- Boxplot de Salários (RN) -->
    <g style="fill: #262626" transform="translate(498.731875 270.72371) scale(0.12 -0.12)">
     <use xlink:href="#ArialMT-42"/>
     <use xlink:href="#ArialMT-6f" transform="translate(66.699219 0)"/>
     <use xlink:href="#ArialMT-78" transform="translate(122.314453 0)"/>
     <use xlink:href="#ArialMT-70" transform="translate(172.314453 0)"/>
     <use xlink:href="#ArialMT-6c" transform="translate(227.929688 0)"/>
     <use xlink:href="#ArialMT-6f" transform="translate(250.146484 0)"/>
     <use xlink:href="#ArialMT-74" transform="translate(305.761719 0)"/>
     <use xlink:href="#ArialMT-20" transform="translate(333.544922 0)"/>
     <use xlink:href="#ArialMT-64" transform="translate(361.328125 0)"/>
     <use xlink:href="#ArialMT-65" transform="translate(416.943359 0)"/>
     <use xlink:href="#ArialMT-20" transform="translate(472.558594 0)"/>
     <use xlink:href="#ArialMT-53" transform="translate(500.341797 0)"/>
     <use xlink:href="#ArialMT-61" transform="translate(567.041016 0)"/>
     <use xlink:href="#ArialMT-6c" transform="translate(622.65625 0)"/>
     <use xlink:href="#ArialMT-e1" transform="translate(644.873047 0)"/>
     <use xlink:href="#ArialMT-72" transform="translate(700.488281 0)"/>
     <use xlink:href="#ArialMT-69" transform="translate(733.789062 0)"/>
     <use xlink:href="#ArialMT-6f" transform="translate(756.005859 0)"/>
     <use xlink:href="#ArialMT-73" transform="translate(811.621094 0)"/>
     <use xlink:href="#ArialMT-20" transform="translate(861.621094 0)"/>
     <use xlink:href="#ArialMT-28" transform="translate(889.404297 0)"/>
     <use xlink:href="#ArialMT-52" transform="translate(922.705078 0)"/>
     <use xlink:href="#ArialMT-4e" transform="translate(994.921875 0)"/>
     <use xlink:href="#ArialMT-29" transform="translate(1067.138672 0)"/>
    </g>
   </g>
  </g>
 </g>
 <defs>
  <clipPath id="p2f7ff9d2b6">
   <rect x="43.955313" y="21.935625" width="297.6" height="188.731915"/>
  </clipPath>
  <clipPath id="p6f9fb7098c">
   <rect x="415.955312" y="21.935625" width="297.6" height="188.731915"/>
  </clipPath>
  <clipPath id="p6fdb9d6d58">
   <rect x="43.955313" y="276.72371" width="297.6" height="188.731915"/>
  </clipPath>
  <clipPath id="p95b6c8407c">
   <rect x="415.955312" y="276.72371" width="297.6" height="188.731915"/>
  </clipPath>
 </defs>
</svg>
